<mxfile host="app.diagrams.net" agent="Mozilla/5.0 (X11; Ubuntu; Linux x86_64; rv:130.0) Gecko/20100101 Firefox/130.0" version="24.7.10">
  <diagram name="Page-1" id="izBeUucO_0Du9adhFIvQ">
    <mxGraphModel dx="114" dy="795" grid="1" gridSize="10" guides="1" tooltips="1" connect="1" arrows="1" fold="1" page="1" pageScale="1" pageWidth="850" pageHeight="1100" math="0" shadow="0">
      <root>
        <mxCell id="0" />
        <mxCell id="1" parent="0" />
        <mxCell id="g65s-tWlrk6P6nK-NufF-45" value="" style="edgeStyle=orthogonalEdgeStyle;rounded=0;orthogonalLoop=1;jettySize=auto;html=1;strokeWidth=3;curved=0;strokeColor=#000000;fontColor=#E6E6E6;fontSize=20;" edge="1" parent="1">
          <mxGeometry relative="1" as="geometry">
            <mxPoint x="1429" y="670" as="targetPoint" />
            <Array as="points" />
            <mxPoint x="1429.1299999999999" y="370" as="sourcePoint" />
          </mxGeometry>
        </mxCell>
        <mxCell id="g65s-tWlrk6P6nK-NufF-46" value="nn.Linear(D*D, 1024)" style="rounded=1;whiteSpace=wrap;html=1;fontSize=20;fillColor=#FFA6A6;strokeColor=#36393d;rotation=0;direction=west;flipV=1;flipH=0;" vertex="1" parent="1">
          <mxGeometry x="1180" y="440" width="250" height="35" as="geometry" />
        </mxCell>
        <mxCell id="g65s-tWlrk6P6nK-NufF-47" value="nn.BatchNorm1d(1024)" style="rounded=1;whiteSpace=wrap;html=1;fontSize=20;fillColor=#f0a30a;strokeColor=#BD7000;fontColor=#000000;rotation=0;direction=west;flipV=1;flipH=0;" vertex="1" parent="1">
          <mxGeometry x="1430" y="440" width="250" height="35" as="geometry" />
        </mxCell>
        <mxCell id="g65s-tWlrk6P6nK-NufF-49" value="nn.Linear(64, 1)" style="rounded=1;whiteSpace=wrap;html=1;fontSize=20;fillColor=#FFA6A6;strokeColor=#36393d;rotation=360;direction=west;flipV=1;flipH=0;" vertex="1" parent="1">
          <mxGeometry x="1332.5" y="610" width="195" height="35" as="geometry" />
        </mxCell>
        <mxCell id="g65s-tWlrk6P6nK-NufF-50" value="&lt;span class=&quot;sig-prename descclassname&quot; style=&quot;font-size: 20px;&quot;&gt;&lt;span class=&quot;pre&quot; style=&quot;font-size: 20px;&quot;&gt;nn.&lt;/span&gt;&lt;/span&gt;&lt;span class=&quot;sig-name descname&quot; style=&quot;font-size: 20px;&quot;&gt;&lt;span class=&quot;pre&quot; style=&quot;font-size: 20px;&quot;&gt;Flatten&lt;/span&gt;&lt;/span&gt;&lt;span class=&quot;sig-paren&quot; style=&quot;font-size: 20px;&quot;&gt;()&lt;/span&gt;" style="rounded=1;whiteSpace=wrap;html=1;fontSize=20;fillColor=#33d17a;strokeColor=#82b366;rotation=0;direction=west;flipV=1;flipH=0;" vertex="1" parent="1">
          <mxGeometry x="1300" y="385" width="260" height="35" as="geometry" />
        </mxCell>
        <mxCell id="g65s-tWlrk6P6nK-NufF-51" value="nn.Linear(1024, 256)" style="rounded=1;whiteSpace=wrap;html=1;fontSize=20;fillColor=#FFA6A6;strokeColor=#36393d;rotation=0;direction=west;flipV=1;flipH=0;" vertex="1" parent="1">
          <mxGeometry x="1200" y="495" width="230" height="35" as="geometry" />
        </mxCell>
        <mxCell id="g65s-tWlrk6P6nK-NufF-52" value="nn.BatchNorm1d(256)" style="rounded=1;whiteSpace=wrap;html=1;fontSize=20;fillColor=#f0a30a;strokeColor=#BD7000;fontColor=#000000;rotation=0;direction=west;flipV=1;flipH=0;" vertex="1" parent="1">
          <mxGeometry x="1430" y="495" width="230" height="35" as="geometry" />
        </mxCell>
        <mxCell id="g65s-tWlrk6P6nK-NufF-53" value="nn.Linear(256, 64)" style="rounded=1;whiteSpace=wrap;html=1;fontSize=20;fillColor=#FFA6A6;strokeColor=#36393d;rotation=0;direction=west;flipV=1;flipH=0;" vertex="1" parent="1">
          <mxGeometry x="1310" y="550" width="240" height="35" as="geometry" />
        </mxCell>
        <mxCell id="g65s-tWlrk6P6nK-NufF-60" value="&lt;font style=&quot;font-size: 20px;&quot;&gt;INPUT &lt;/font&gt;&lt;font style=&quot;font-size: 20px;&quot;&gt;IMAGE shape = [D,D]&lt;/font&gt;" style="rounded=0;whiteSpace=wrap;html=1;fillColor=#404040;fontColor=#E8E8E8;fontSize=20;" vertex="1" parent="1">
          <mxGeometry x="1180" y="330" width="500" height="40" as="geometry" />
        </mxCell>
      </root>
    </mxGraphModel>
  </diagram>
</mxfile>
